<?xml version="1.0" encoding="UTF-8" standalone="no"?><!-- Generator: Gravit.io --><svg xmlns="http://www.w3.org/2000/svg" xmlns:xlink="http://www.w3.org/1999/xlink" style="isolation:isolate" viewBox="0 0 512 512" width="512pt" height="512pt"><g><linearGradient id="_lgradient_5" x1="0.5" y1="0" x2="0.49999999999999983" y2="1" gradientTransform="matrix(416,0,0,495.673165,48,8.163417)" gradientUnits="userSpaceOnUse"><stop offset="1.7391304347826086%" stop-opacity="1" style="stop-color:rgb(0,0,0)"/><stop offset="99.1304347826087%" stop-opacity="1" style="stop-color:rgb(0,0,0)"/></linearGradient><mask id="_mask_Ja8ygmFTsldkfU5aKBzjcAmpksMyU7iv"><polygon points="256,503.836583,48,379.918291,48,132.081709,256,8.163417,464,132.081709,464,379.918291" fill="white" stroke="none"/></mask><polygon points="256,503.836583,48,379.918291,48,132.081709,256,8.163417,464,132.081709,464,379.918291" fill="url(#_lgradient_5)"/><polygon points="256,503.836583,48,379.918291,48,132.081709,256,8.163417,464,132.081709,464,379.918291" fill="url(#_lgradient_5)" mask="url(#_mask_Ja8ygmFTsldkfU5aKBzjcAmpksMyU7iv)" vector-effect="non-scaling-stroke" stroke-width="32" stroke="rgb(23,23,23)" stroke-linejoin="miter" stroke-linecap="round" stroke-miterlimit="3"/><clipPath id="_clipPath_G3n81dvK9yOZOsjnvTErFvKHHkcYgpGl"><polygon points="256,503.836583,48,379.918291,48,132.081709,256,8.163417,464,132.081709,464,379.918291" fill="url(#_lgradient_5)"/><polygon points="256,503.836583,48,379.918291,48,132.081709,256,8.163417,464,132.081709,464,379.918291" fill="url(#_lgradient_5)" mask="url(#_mask_Ja8ygmFTsldkfU5aKBzjcAmpksMyU7iv)" vector-effect="non-scaling-stroke" stroke-width="32" stroke="rgb(23,23,23)" stroke-linejoin="miter" stroke-linecap="round" stroke-miterlimit="3"/></clipPath><g clip-path="url(#_clipPath_G3n81dvK9yOZOsjnvTErFvKHHkcYgpGl)"><path d=" M 464 297.306 L 464 379.918 L 384 427.579 L 384 84.421 L 464 132.082 L 464 256 L 464 297.306 Z " fill-rule="evenodd" fill="rgb(228,37,42)"/><path d=" M 384 84.421 L 384 427.579 L 360 441.877 L 320 465.708 L 320 46.292 L 360 70.123 L 384 84.421 Z " fill-rule="evenodd" fill="rgb(246,137,32)"/><path d=" M 320 46.292 L 320 465.708 L 256 503.837 L 256 8.163 L 320 46.292 Z " fill-rule="evenodd" fill="rgb(246,233,14)"/><path d=" M 256 8.163 L 256 503.837 L 256 503.837 L 192 465.708 L 192 46.292 L 256 8.163 L 256 8.163 Z " fill-rule="evenodd" fill="rgb(14,128,66)"/><path d=" M 128 0 L 192 0 L 192 512 L 128 512 L 128 0 Z " fill-rule="evenodd" fill="rgb(64,98,172)"/><path d=" M 128 84.421 L 128 427.579 L 48 379.918 L 48 256 L 48 132.082 L 128 84.421 Z " fill-rule="evenodd" fill="rgb(116,43,132)"/></g><polygon points="256,503.836583,48,379.918291,48,132.081709,256,8.163417,464,132.081709,464,379.918291" fill="transparent" mask="url(#_mask_Ja8ygmFTsldkfU5aKBzjcAmpksMyU7iv)" vector-effect="non-scaling-stroke" stroke-width="32" stroke="rgb(23,23,23)" stroke-linejoin="miter" stroke-linecap="round" stroke-miterlimit="3"/><g><mask id="_mask_KMND84yEftYl0nBRH80WkJkCBbX4qmuF"><path d=" M 256 256.417 L 152 194.458 L 48 132.499 L 48 132.082 L 152 70.123 L 256 8.163 L 360 70.123 L 464 132.082 L 464 132.499 L 360 194.458 L 256 256.417 Z " fill="white" stroke="none"/></mask><path d=" M 256 256.417 L 152 194.458 L 48 132.499 L 48 132.082 L 152 70.123 L 256 8.163 L 360 70.123 L 464 132.082 L 464 132.499 L 360 194.458 L 256 256.417 Z " fill="rgb(122,82,30)"/><path d=" M 256 256.417 L 152 194.458 L 48 132.499 L 48 132.082 L 152 70.123 L 256 8.163 L 360 70.123 L 464 132.082 L 464 132.499 L 360 194.458 L 256 256.417 Z " fill="rgb(122,82,30)" mask="url(#_mask_KMND84yEftYl0nBRH80WkJkCBbX4qmuF)" vector-effect="non-scaling-stroke" stroke-width="32" stroke="rgb(23,23,23)" stroke-linejoin="miter" stroke-linecap="round" stroke-miterlimit="3"/><path d=" M 256 220.611 L 182 176.525 L 108 132.439 L 108 132.142 L 182 88.056 L 256 43.969 L 330 88.056 L 404 132.142 L 404 132.439 L 330 176.525 L 256 220.611 Z " fill="rgb(123,207,232)"/><path d=" M 256 202.41 L 197.25 167.409 L 138.5 132.408 L 138.5 132.172 L 197.25 97.171 L 256 62.171 L 314.75 97.171 L 373.5 132.172 L 373.5 132.408 L 314.75 167.409 L 256 202.41 Z " fill="rgb(244,174,200)"/><path d=" M 256 183.612 L 212.75 157.994 L 169.5 132.376 L 169.5 132.204 L 212.75 106.586 L 256 80.969 L 299.25 106.586 L 342.5 132.204 L 342.5 132.376 L 299.25 157.994 L 256 183.612 Z " fill="rgb(255,255,255)"/><path d=" M 256 166.977 L 226.937 149.663 L 197.875 132.349 L 197.875 132.232 L 226.937 114.918 L 256 97.603 L 285.063 114.918 L 314.125 132.232 L 314.125 132.349 L 285.063 149.663 L 256 166.977 Z " fill="rgb(246,233,14)"/><mask id="_mask_nMXyIj99DlOsMMnKylqOMVuzEZUD6y6H"><ellipse vector-effect="non-scaling-stroke" cx="255.99999486426867" cy="132.2902413668158" rx="28.336790473901658" ry="14.168395236950829" fill="white" stroke="none"/></mask><ellipse vector-effect="non-scaling-stroke" cx="255.99999486426867" cy="132.2902413668158" rx="28.336790473901658" ry="14.168395236950829" fill="none"/><ellipse vector-effect="non-scaling-stroke" cx="255.99999486426867" cy="132.2902413668158" rx="28.336790473901658" ry="14.168395236950829" fill="none" mask="url(#_mask_nMXyIj99DlOsMMnKylqOMVuzEZUD6y6H)" stroke-width="8" stroke="rgb(102,51,139)" stroke-linejoin="miter" stroke-linecap="square" stroke-miterlimit="3"/></g></g></svg>